<svg width="28" height="28" viewBox="0 0 28 28" fill="none" xmlns="http://www.w3.org/2000/svg">
<path d="M12.0049 4.50357L2.12327 21.0002C1.91953 21.3531 1.81173 21.7531 1.81059 22.1605C1.80945 22.5679 1.91501 22.9686 2.11676 23.3225C2.31852 23.6765 2.60945 23.9714 2.96059 24.1781C3.31174 24.3847 3.71086 24.4958 4.11827 24.5002H23.8816C24.289 24.4958 24.6881 24.3847 25.0393 24.1781C25.3904 23.9714 25.6813 23.6765 25.8831 23.3225C26.0849 22.9686 26.1904 22.5679 26.1893 22.1605C26.1881 21.7531 26.0803 21.3531 25.8766 21.0002L15.9949 4.50357C15.7869 4.1607 15.4941 3.87721 15.1447 3.68047C14.7952 3.48373 14.401 3.38037 13.9999 3.38037C13.5989 3.38037 13.2046 3.48373 12.8552 3.68047C12.5058 3.87721 12.2129 4.1607 12.0049 4.50357V4.50357Z" stroke="#F50000" stroke-width="2.5" stroke-linecap="round" stroke-linejoin="round"/>
<path d="M14 10.5V15.1667" stroke="#F50000" stroke-width="2.5" stroke-linecap="round" stroke-linejoin="round"/>
<path d="M14 19.8335H14.0117" stroke="#F50000" stroke-width="2.5" stroke-linecap="round" stroke-linejoin="round"/>
</svg>
